<svg width="31" height="25" viewBox="0 0 31 25" fill="none" xmlns="http://www.w3.org/2000/svg">
<path fill-rule="evenodd" clip-rule="evenodd" d="M29.0625 0C30.1327 0 31 0.867341 31 1.9375C31 3.00766 30.1327 3.875 29.0625 3.875H1.9375C0.867341 3.875 0 3.00766 0 1.9375C0 0.867341 0.867341 0 1.9375 0H29.0625ZM29.0625 10.4625C30.1327 10.4625 31 11.3298 31 12.4C31 13.4702 30.1327 14.3375 29.0625 14.3375H1.9375C0.867341 14.3375 0 13.4702 0 12.4C0 11.3298 0.867341 10.4625 1.9375 10.4625H29.0625ZM31 22.8625C31 21.7923 30.1327 20.925 29.0625 20.925H1.9375C0.867341 20.925 0 21.7923 0 22.8625C0 23.9327 0.867341 24.8 1.9375 24.8H29.0625C30.1327 24.8 31 23.9327 31 22.8625Z" fill="black"/>
</svg>
